<?xml version="1.0" encoding="utf-8"?>
<!-- Generator: Adobe Illustrator 25.0.1, SVG Export Plug-In . SVG Version: 6.00 Build 0)  -->
<svg version="1.1" id="Layer_1" xmlns="http://www.w3.org/2000/svg" xmlns:xlink="http://www.w3.org/1999/xlink" x="0px" y="0px"
	 viewBox="0 0 1000 1000" style="enable-background:new 0 0 1000 1000;" xml:space="preserve">
<style type="text/css">
	.st0{fill:#A4515D;}
	.st1{fill:#FFFFFF;}
</style>
<rect class="st0" width="1000" height="1000"/>
<g>
	<g>
		<path class="st1" d="M106.3,826.9h1.3l-30.2,48.6v34.8H66.4v-34.5L36,826.9h12.2l28.7,46.8L106.3,826.9z"/>
		<path class="st1" d="M117.7,826h10.8v13.1h-10.8V826z M128.3,910.1h-10.5v-57.8h10.5V910.1z"/>
		<path class="st1" d="M156,910.2h-10.4v-57.8h10L156,867c2.7-9.8,10.6-15.8,20.8-15.8c12.3,0,19.2,8,19.2,20v39h-10.4v-42
			c0-8.5-3.2-14.8-12.4-14.8c-8.7,0-16.9,8.5-17.1,20.3L156,910.2z"/>
		<path class="st1" d="M303.7,826.9h1.3l-30.2,48.6v34.8h-10.9v-34.5l-30.5-48.8h12.2l28.7,46.8L303.7,826.9z"/>
		<path class="st1" d="M299.4,881.4c0-16.9,12.9-30.2,29-30.2s29.1,13.3,29.1,30.2c0,16.7-12.9,30-29.1,30S299.4,898,299.4,881.4z
			 M310.6,881.4c0,20.2,6.7,28.9,17.9,28.9s18-8.7,18-28.9c0-20.5-6.7-29.2-18-29.2S310.6,860.9,310.6,881.4z"/>
		<path class="st1" d="M389.9,936.9c-16.5,0-28.7-5.2-28.7-15.9c0-7.9,8.1-12.7,16-12.9c-5.8-1.1-10.1-5-10.1-10.7s4-9.4,9.4-11.7
			c-5.7-3.1-9.2-9.1-9.3-15.6c0-10.5,9.6-19,23.3-19c5.3-0.1,10.4,1.3,14.9,4.2c3.2-5.1,7-9.2,12.7-9.2c5.1,0,8.3,3.2,8.3,8.1
			c0,2.4-0.8,4.7-2.4,6.5l-1-0.8c1.4-1.6,2.2-3.6,2.1-5.7c0-4.3-3-6.9-7.1-6.9c-4.9,0-8.8,3.8-11.8,8.7c4.7,3.2,7.5,8.5,7.6,14.2
			c0,10.7-9.9,19.3-23.4,19.3c-4.5,0.1-9-1-13-3.1c-4.2,1.7-7.4,4.2-7.4,7.6s3.5,5.1,8.9,5.1h24.8c11.4,0,19.2,4.6,19.2,15.2
			C423,928.6,406.9,936.9,389.9,936.9z M379.4,908.9c-7.3,0-17,3.6-17,12.1c0,10.1,11.8,14.8,27.5,14.8c14.9,0,28.8-6.4,28.8-17.4
			c0-6.1-4.2-9.5-13.1-9.5H379.4z M390.5,852.2c-8.7,0-12.9,6.4-12.9,18c0,11.8,4.2,18.2,12.9,18.2s12.9-6.4,12.9-18.2
			C403.3,858.6,399.1,852.2,390.5,852.2L390.5,852.2z"/>
		<path class="st1" d="M466.8,868c0-9.6-5-15.6-15.6-15.6c-10.4,0-17.7,5.8-17.7,14.2c0,4,1.3,6.1,4,8.2l-0.7,0.8
			c-3-2-4.7-5.4-4.5-9c0-8.9,7.7-15.5,21.2-15.5c16.1,0,23.7,7.7,23.7,20.1v38.9h-9.3l-0.8-16.7c-2.1,8.5-9.5,17.8-22,17.8
			c-9.9,0-17-5.6-17-14.5c0-10.6,11.2-14.5,22.5-16.4l16.3-2.6L466.8,868z M452.8,881.2c-10,1.5-14.6,5.7-14.6,14
			s4.6,13.1,11.2,13.1c9.3,0,16.3-9.2,17.4-19.2V879L452.8,881.2z"/>
		<path class="st1" d="M547.8,828.2h-32.6v-1.3h76.2v1.3h-32.6v82h-11L547.8,828.2z"/>
		<path class="st1" d="M611.3,821v46c2.7-9.8,10.6-15.8,20.8-15.8c12.3,0,19.2,8,19.2,20v39h-10.5v-42c0-8.5-3.2-14.8-12.4-14.8
			c-8.7,0-16.9,8.5-17.1,20.3v36.4h-10.5V821H611.3z"/>
		<path class="st1" d="M691.2,911.4c-13.8,0-28.3-11.4-28.3-29.8c0-18.6,13.5-30.5,27.7-30.5c16.4,0,25.8,12.4,25.8,27.4h-42.2
			c-0.1,1.1-0.1,2.2-0.1,3.3c0,17.7,6.5,27.8,19.8,27.8c10.1,0,18.7-6.2,21.2-17.7l1.2,0.2C713.4,904.3,704.4,911.4,691.2,911.4z
			 M674.2,877.4h31.5c0-14.8-3.6-25.1-15.1-25.1C682,852.2,675.1,859.3,674.2,877.4L674.2,877.4z"/>
		<path class="st1" d="M758.5,851.1c7.7,0,11.9,4.9,11.9,11.5c0.1,3.5-1.3,6.9-3.8,9.3l-0.8-0.8c2.3-2.2,3.6-5.3,3.5-8.5
			c0-6.2-3.8-10.3-10.7-10.3c-11.3,0-18.8,14.5-19.4,25.6v32.2h-10.5v-57.8h10l0.5,18.8C741.6,860.9,748.8,851.1,758.5,851.1z"/>
		<path class="st1" d="M814.1,868c0-9.6-5-15.6-15.6-15.6c-10.3,0-17.7,5.8-17.7,14.2c0,4,1.3,6.1,4,8.2l-0.7,0.8
			c-2.9-2-4.7-5.4-4.5-9c0-8.9,7.7-15.5,21.2-15.5c16.1,0,23.7,7.7,23.7,20.1v38.9h-9.3l-0.8-16.7c-2.1,8.5-9.5,17.8-22,17.8
			c-9.9,0-17-5.6-17-14.5c0-10.6,11.2-14.5,22.5-16.4l16.3-2.6L814.1,868z M800.2,881.2c-10,1.5-14.6,5.7-14.6,14
			s4.6,13.1,11.2,13.1c9.3,0,16.3-9.2,17.4-19.2V879L800.2,881.2z"/>
		<path class="st1" d="M851.3,935.8h-10.5v-83.4h10l0.5,14.9c2.5-9.5,11.1-16.1,20.9-16.1c13.6,0,25.5,11.4,25.5,29.8
			s-11.7,30.5-25.5,30.5c-9.8,0.1-18.4-6.5-20.9-16V935.8z M851.3,887.6c0.2,12.6,8.2,21.5,18.2,21.5c11,0,17-12.1,17-28.2
			s-6.1-27.6-16.9-27.6c-9.5,0-18.1,8.6-18.3,21.4L851.3,887.6z"/>
		<path class="st1" d="M897.6,926.1c-0.1-2.1,0.5-4.2,1.7-6l1.1,0.5c-1,1.7-1.5,3.5-1.5,5.5c0,5.7,3.7,9.6,9.3,9.6
			c7.3,0,11.1-6.2,16.8-18.7l3.2-7.3l-26.7-57.5h11.1l20.7,46.2l20.7-46.2h1.4l-29.3,65.1c-5.8,13.1-10.2,19.5-18,19.5
			C901.8,936.9,897.6,932.5,897.6,926.1z"/>
	</g>
	<g>
		<path class="st1" d="M81.1,56.9h10.8v54.5c0,17.8-12.3,28.7-29.4,28.7c-15.5,0-25.6-9.6-25.6-23c0-7.4,4-13.4,8.2-15.8l0.5,0.9
			c-4.8,3.4-7.7,9-7.5,14.9c0,12.8,9.7,21.5,22.8,21.5c14.1,0,20.3-9.5,20.3-24.5V56.9z"/>
		<path class="st1" d="M110.6,56.9h10.9v39.2h50.7V56.9H183V139h-10.8V97.3h-50.7V139h-10.9V56.9z"/>
	</g>
</g>
</svg>
