<?xml version="1.0" encoding="utf-8"?>
<!-- Generator: Adobe Illustrator 25.0.1, SVG Export Plug-In . SVG Version: 6.00 Build 0)  -->
<svg version="1.1" id="Layer_1" xmlns="http://www.w3.org/2000/svg" xmlns:xlink="http://www.w3.org/1999/xlink" x="0px" y="0px"
	 viewBox="0 0 1000 1000" style="enable-background:new 0 0 1000 1000;" xml:space="preserve">
<style type="text/css">
	.st0{fill:#A4515D;}
	.st1{fill:#FFFFFF;}
</style>
<g>
	<rect class="st0" width="1000" height="1000"/>
	<g>
		<path class="st1" d="M69.3,828.2H36.7v-1.3h76.2v1.3H80.2v82H69.3V828.2z"/>
		<path class="st1" d="M132.8,821v46c2.7-9.8,10.6-15.8,20.8-15.8c12.3,0,19.2,8,19.2,20v39h-10.5v-42c0-8.5-3.2-14.8-12.4-14.8
			c-8.7,0-16.9,8.5-17.1,20.3v36.4h-10.5V821H132.8z"/>
		<path class="st1" d="M212.7,911.4c-13.8,0-28.3-11.4-28.3-29.8c0-18.6,13.4-30.5,27.7-30.5c16.4,0,25.8,12.4,25.8,27.4h-42.2
			c-0.1,1.1-0.1,2.2-0.1,3.3c0,17.7,6.5,27.8,19.8,27.8c10.1,0,18.7-6.2,21.2-17.7l1.2,0.2C234.9,904.3,225.9,911.4,212.7,911.4z
			 M195.7,877.4h31.5c0-14.8-3.6-25.1-15.1-25.1C203.5,852.2,196.6,859.3,195.7,877.4L195.7,877.4z"/>
		<path class="st1" d="M280,851.1c7.7,0,11.9,4.9,11.9,11.5c0.1,3.5-1.3,6.9-3.8,9.3l-0.8-0.8c2.3-2.2,3.6-5.3,3.5-8.5
			c0-6.2-3.8-10.3-10.7-10.3c-11.3,0-18.8,14.5-19.4,25.6v32.2h-10.4v-57.8h10l0.5,18.8C263.1,860.9,270.3,851.1,280,851.1z"/>
		<path class="st1" d="M335.6,868c0-9.6-5-15.6-15.6-15.6c-10.4,0-17.7,5.8-17.7,14.2c0,4,1.3,6.1,4,8.2l-0.7,0.8
			c-2.9-2-4.7-5.4-4.5-9c0-8.9,7.7-15.5,21.2-15.5c16.1,0,23.7,7.7,23.7,20.1v38.9h-9.3l-0.8-16.7c-2.1,8.5-9.5,17.8-22,17.8
			c-9.9,0-17-5.6-17-14.5c0-10.6,11.2-14.5,22.5-16.4l16.3-2.6V868z M321.7,881.2c-10,1.5-14.6,5.7-14.6,14s4.6,13.1,11.2,13.1
			c9.3,0,16.3-9.2,17.4-19.2V879L321.7,881.2z"/>
		<path class="st1" d="M372.9,935.8h-10.5v-83.4h10l0.5,14.9c2.5-9.5,11.1-16.1,21-16.1c13.6,0,25.5,11.4,25.5,29.8
			s-11.7,30.5-25.5,30.5c-9.8,0.1-18.4-6.5-21-16V935.8z M372.9,887.6c0.2,12.6,8.2,21.5,18.2,21.5c11,0,17-12.1,17-28.2
			s-6.1-27.6-16.9-27.6c-9.5,0-18.1,8.6-18.3,21.4L372.9,887.6z"/>
		<path class="st1" d="M419.1,926.1c-0.1-2.1,0.5-4.2,1.7-6l1.1,0.5c-1,1.7-1.5,3.5-1.5,5.5c0,5.7,3.7,9.6,9.3,9.6
			c7.3,0,11.1-6.2,16.8-18.7l3.2-7.3L423,852.3h11l20.7,46.2l20.7-46.2h1.4l-29.3,65.1c-5.8,13.1-10.2,19.5-18,19.5
			C423.3,936.9,419.1,932.5,419.1,926.1z"/>
		<path class="st1" d="M516.8,863.4c0,6.4,4.2,8.7,11.3,10.5l11.1,3c10.2,2.6,16.5,6.5,16.5,15.5c0,11.4-9.8,19-23.5,19
			c-11.8,0-22-6.2-24.5-16.4l1.2-0.5c2.4,10.2,12.8,15.7,23.3,15.7c9.2,0,16.5-4.5,16.5-12.9c0-6.3-5.1-9.2-12.1-10.9l-11.5-2.9
			c-8.9-2.3-14.9-6.3-14.9-14.8c0-10.3,9.8-17.6,21.8-17.6c9.8,0,18,4.2,20.8,13.2l-1.2,0.6c-2.8-9-10.3-12.6-19.6-12.6
			C523.2,852.3,516.8,857.1,516.8,863.4z"/>
		<path class="st1" d="M591.8,911.4c-13.8,0-28.3-11.4-28.3-29.8c0-18.6,13.5-30.5,27.7-30.5c16.4,0,25.8,12.4,25.8,27.4h-42.2
			c-0.1,1.1-0.1,2.2-0.1,3.3c0,17.7,6.5,27.8,19.8,27.8c10.1,0,18.7-6.2,21.2-17.7l1.2,0.2C614.1,904.3,605,911.4,591.8,911.4z
			 M574.8,877.4h31.5c0-14.8-3.6-25.1-15.1-25.1C582.7,852.2,575.8,859.3,574.8,877.4L574.8,877.4z"/>
		<path class="st1" d="M632.3,863.4c0,6.4,4.2,8.7,11.3,10.5l11.1,3c10.2,2.6,16.5,6.5,16.5,15.5c0,11.4-9.8,19-23.4,19
			c-11.8,0-22-6.2-24.5-16.4l1.2-0.5c2.4,10.2,12.8,15.7,23.3,15.7c9.2,0,16.5-4.5,16.5-12.9c0-6.3-5.1-9.2-12.1-10.9l-11.5-2.9
			c-8.9-2.3-14.9-6.3-14.9-14.8c0-10.3,9.8-17.6,21.8-17.6c9.8,0,18,4.2,20.8,13.2l-1.2,0.6c-2.9-9-10.3-12.6-19.6-12.6
			C638.6,852.3,632.3,857.1,632.3,863.4z"/>
		<path class="st1" d="M686.7,863.4c0,6.4,4.2,8.7,11.3,10.5l11.1,3c10.2,2.6,16.5,6.5,16.5,15.5c0,11.4-9.8,19-23.5,19
			c-11.8,0-22-6.2-24.5-16.4l1.2-0.5c2.4,10.2,12.8,15.7,23.3,15.7c9.2,0,16.5-4.5,16.5-12.9c0-6.3-5.1-9.2-12.1-10.9l-11.5-2.8
			c-8.9-2.3-14.9-6.3-14.9-14.8c0-10.3,9.8-17.6,21.8-17.6c9.8,0,18,4.2,20.8,13.2l-1.2,0.6c-2.9-9-10.3-12.6-19.6-12.6
			C693,852.3,686.7,857.1,686.7,863.4z"/>
		<path class="st1" d="M738.1,826h10.8v13.1h-10.8V826z M748.7,910.1h-10.5v-57.8h10.5L748.7,910.1z"/>
		<path class="st1" d="M761,881.4c0-16.9,12.8-30.2,29-30.2s29.2,13.3,29.2,30.2c0,16.7-12.8,30-29.2,30S761,898,761,881.4z
			 M772.2,881.4c0,20.2,6.7,28.9,17.8,28.9s18-8.7,18-28.9c0-20.5-6.7-29.2-18-29.2S772.2,860.9,772.2,881.4L772.2,881.4z"/>
		<path class="st1" d="M841.9,910.2h-10.5v-57.8h10l0.5,14.6c2.7-9.8,10.6-15.8,20.8-15.8c12.2,0,19.2,8,19.2,20v39h-10.5v-42
			c0-8.5-3.2-14.8-12.4-14.8c-8.7,0-16.9,8.5-17.1,20.3V910.2z"/>
	</g>
	<g>
		<path class="st1" d="M81.1,56.9h10.8v54.5c0,17.8-12.3,28.7-29.4,28.7c-15.5,0-25.6-9.6-25.6-23c0-7.4,4-13.4,8.2-15.8l0.5,0.9
			c-4.8,3.4-7.7,9-7.5,14.9c0,12.8,9.7,21.5,22.8,21.5c14.1,0,20.3-9.5,20.3-24.5V56.9z"/>
		<path class="st1" d="M110.6,56.9h10.9v39.2h50.7V56.9H183V139h-10.8V97.3h-50.7V139h-10.9V56.9z"/>
	</g>
</g>
</svg>
