<svg version="1.1" id="Layer_1" xmlns="http://www.w3.org/2000/svg" x="0" y="0" viewBox="0 0 1000 1000" xml:space="preserve"><style>.st1{fill:#fff}</style><path fill="#a4515d" d="M0 0h1000v1000H0z"/><path class="st1" d="M69.3 828.2H36.7v-1.3h76.2v1.3H80.2v82H69.3v-82zM132.8 821v46c2.7-9.8 10.6-15.8 20.8-15.8 12.3 0 19.2 8 19.2 20v39h-10.5v-42c0-8.5-3.2-14.8-12.4-14.8-8.7 0-16.9 8.5-17.1 20.3v36.4h-10.5V821h10.5zM212.7 911.4c-13.8 0-28.3-11.4-28.3-29.8 0-18.6 13.4-30.5 27.7-30.5 16.4 0 25.8 12.4 25.8 27.4h-42.2c-.1 1.1-.1 2.2-.1 3.3 0 17.7 6.5 27.8 19.8 27.8 10.1 0 18.7-6.2 21.2-17.7l1.2.2c-2.9 12.2-11.9 19.3-25.1 19.3zm-17-34h31.5c0-14.8-3.6-25.1-15.1-25.1-8.6-.1-15.5 7-16.4 25.1zM280 851.1c7.7 0 11.9 4.9 11.9 11.5.1 3.5-1.3 6.9-3.8 9.3l-.8-.8c2.3-2.2 3.6-5.3 3.5-8.5 0-6.2-3.8-10.3-10.7-10.3-11.3 0-18.8 14.5-19.4 25.6v32.2h-10.4v-57.8h10l.5 18.8c2.3-10.2 9.5-20 19.2-20zM335.6 868c0-9.6-5-15.6-15.6-15.6-10.4 0-17.7 5.8-17.7 14.2 0 4 1.3 6.1 4 8.2l-.7.8c-2.9-2-4.7-5.4-4.5-9 0-8.9 7.7-15.5 21.2-15.5 16.1 0 23.7 7.7 23.7 20.1v38.9h-9.3l-.8-16.7c-2.1 8.5-9.5 17.8-22 17.8-9.9 0-17-5.6-17-14.5 0-10.6 11.2-14.5 22.5-16.4l16.3-2.6V868zm-13.9 13.2c-10 1.5-14.6 5.7-14.6 14s4.6 13.1 11.2 13.1c9.3 0 16.3-9.2 17.4-19.2V879l-14 2.2zM372.9 935.8h-10.5v-83.4h10l.5 14.9c2.5-9.5 11.1-16.1 21-16.1 13.6 0 25.5 11.4 25.5 29.8s-11.7 30.5-25.5 30.5c-9.8.1-18.4-6.5-21-16v40.3zm0-48.2c.2 12.6 8.2 21.5 18.2 21.5 11 0 17-12.1 17-28.2s-6.1-27.6-16.9-27.6c-9.5 0-18.1 8.6-18.3 21.4v12.9zM419.1 926.1c-.1-2.1.5-4.2 1.7-6l1.1.5c-1 1.7-1.5 3.5-1.5 5.5 0 5.7 3.7 9.6 9.3 9.6 7.3 0 11.1-6.2 16.8-18.7l3.2-7.3-26.7-57.4h11l20.7 46.2 20.7-46.2h1.4l-29.3 65.1c-5.8 13.1-10.2 19.5-18 19.5-6.2 0-10.4-4.4-10.4-10.8zM516.8 863.4c0 6.4 4.2 8.7 11.3 10.5l11.1 3c10.2 2.6 16.5 6.5 16.5 15.5 0 11.4-9.8 19-23.5 19-11.8 0-22-6.2-24.5-16.4l1.2-.5c2.4 10.2 12.8 15.7 23.3 15.7 9.2 0 16.5-4.5 16.5-12.9 0-6.3-5.1-9.2-12.1-10.9l-11.5-2.9c-8.9-2.3-14.9-6.3-14.9-14.8 0-10.3 9.8-17.6 21.8-17.6 9.8 0 18 4.2 20.8 13.2l-1.2.6c-2.8-9-10.3-12.6-19.6-12.6-8.8 0-15.2 4.8-15.2 11.1zM591.8 911.4c-13.8 0-28.3-11.4-28.3-29.8 0-18.6 13.5-30.5 27.7-30.5 16.4 0 25.8 12.4 25.8 27.4h-42.2c-.1 1.1-.1 2.2-.1 3.3 0 17.7 6.5 27.8 19.8 27.8 10.1 0 18.7-6.2 21.2-17.7l1.2.2c-2.8 12.2-11.9 19.3-25.1 19.3zm-17-34h31.5c0-14.8-3.6-25.1-15.1-25.1-8.5-.1-15.4 7-16.4 25.1zM632.3 863.4c0 6.4 4.2 8.7 11.3 10.5l11.1 3c10.2 2.6 16.5 6.5 16.5 15.5 0 11.4-9.8 19-23.4 19-11.8 0-22-6.2-24.5-16.4l1.2-.5c2.4 10.2 12.8 15.7 23.3 15.7 9.2 0 16.5-4.5 16.5-12.9 0-6.3-5.1-9.2-12.1-10.9l-11.5-2.9c-8.9-2.3-14.9-6.3-14.9-14.8 0-10.3 9.8-17.6 21.8-17.6 9.8 0 18 4.2 20.8 13.2l-1.2.6c-2.9-9-10.3-12.6-19.6-12.6-9 0-15.3 4.8-15.3 11.1zM686.7 863.4c0 6.4 4.2 8.7 11.3 10.5l11.1 3c10.2 2.6 16.5 6.5 16.5 15.5 0 11.4-9.8 19-23.5 19-11.8 0-22-6.2-24.5-16.4l1.2-.5c2.4 10.2 12.8 15.7 23.3 15.7 9.2 0 16.5-4.5 16.5-12.9 0-6.3-5.1-9.2-12.1-10.9l-11.5-2.8c-8.9-2.3-14.9-6.3-14.9-14.8 0-10.3 9.8-17.6 21.8-17.6 9.8 0 18 4.2 20.8 13.2l-1.2.6c-2.9-9-10.3-12.6-19.6-12.6-8.9-.1-15.2 4.7-15.2 11zM738.1 826h10.8v13.1h-10.8V826zm10.6 84.1h-10.5v-57.8h10.5v57.8zM761 881.4c0-16.9 12.8-30.2 29-30.2s29.2 13.3 29.2 30.2c0 16.7-12.8 30-29.2 30s-29-13.4-29-30zm11.2 0c0 20.2 6.7 28.9 17.8 28.9s18-8.7 18-28.9c0-20.5-6.7-29.2-18-29.2s-17.8 8.7-17.8 29.2zM841.9 910.2h-10.5v-57.8h10l.5 14.6c2.7-9.8 10.6-15.8 20.8-15.8 12.2 0 19.2 8 19.2 20v39h-10.5v-42c0-8.5-3.2-14.8-12.4-14.8-8.7 0-16.9 8.5-17.1 20.3v36.5z"/><g><path class="st1" d="M81.1 56.9h10.8v54.5c0 17.8-12.3 28.7-29.4 28.7-15.5 0-25.6-9.6-25.6-23 0-7.4 4-13.4 8.2-15.8l.5.9c-4.8 3.4-7.7 9-7.5 14.9 0 12.8 9.7 21.5 22.8 21.5 14.1 0 20.3-9.5 20.3-24.5V56.9zM110.6 56.9h10.9v39.2h50.7V56.9H183V139h-10.8V97.3h-50.7V139h-10.9V56.9z"/></g></svg>