<svg data-name="Layer 1" xmlns="http://www.w3.org/2000/svg" width="1000" height="1000"><path fill="#e35a25" d="M0 0h1000v1000H0z"/><g fill="#fff"><path d="M79.17 825.67c14.75 0 26.54 7 31.65 21.43l-1.19.47C105 834.36 94.16 827.22 81 827.22c-18.44 0-30.7 14.76-30.7 41.3s12.21 41.29 30.7 41.29c13.21 0 24.16-6.78 29-20.23l1.19.48c-5.36 14.4-17.26 21.3-32 21.3-23 0-41.18-17.62-41.18-42.61s18.19-43.08 41.16-43.08zM118 881.37c0-16.9 12.85-30.23 29-30.23s29.15 13.33 29.15 30.23c0 16.66-12.85 30-29.15 30s-29-13.37-29-30zm11.19 0c0 20.23 6.66 28.92 17.85 28.92s18-8.69 18-28.92c0-20.47-6.67-29.16-18-29.16s-17.89 8.69-17.89 29.16zM198.88 910.17h-10.47v-57.84h10l.48 14.64c2.74-9.76 10.59-15.83 20.83-15.83 12.25 0 19.16 8 19.16 20v39h-10.49v-42c0-8.45-3.21-14.76-12.37-14.76-8.69 0-16.9 8.45-17.14 20.35zM258.14 863.4c0 6.43 4.17 8.69 11.31 10.47l11.06 3c10.24 2.61 16.55 6.54 16.55 15.47 0 11.42-9.76 19-23.45 19-11.78 0-22-6.19-24.51-16.43l1.19-.47c2.38 10.23 12.85 15.71 23.32 15.71 9.16 0 16.54-4.53 16.54-12.86 0-6.3-5.11-9.16-12.14-10.94l-11.54-2.86c-8.92-2.26-14.87-6.31-14.87-14.76 0-10.35 9.75-17.61 21.77-17.61 9.76 0 18 4.17 20.83 13.21l-1.2.67c-2.86-9.05-10.35-12.62-19.64-12.62-8.91-.05-15.22 4.71-15.22 11.02zM347.87 852.33h10.47v57.84h-10l-.47-14.64c-2.62 9.76-9.88 15.83-20.12 15.83-11.78 0-18.8-8.21-18.8-20.23v-38.8h10.47v41.77c0 8.33 3.22 15 12 15 8.57 0 16.31-8.57 16.43-20.47zM386.06 910.17h-10.47V821h10.47zM395.34 852.33h9.29v-15.47L415 832.7v19.63h20.71l-.6 1.19H415v45.34c0 7.38 3.21 10.71 8.09 10.71 8.33 0 13.09-6.78 13.57-17.73l1.19.12c-.6 11.19-5.48 19.4-17.14 19.4-10 0-16.18-5.83-16.06-16.31v-41.53h-9.29zM482.45 868c0-9.64-5-15.59-15.59-15.59-10.35 0-17.73 5.83-17.73 14.16 0 4 1.31 6.07 4 8.21l-.71.84a10.45 10.45 0 01-4.52-9c0-8.92 7.73-15.47 21.18-15.47 16.07 0 23.68 7.74 23.68 20.11v38.92h-9.28l-.83-16.66c-2.14 8.45-9.52 17.85-22 17.85-9.88 0-17-5.6-17-14.52 0-10.59 11.19-14.52 22.5-16.42l16.3-2.62zm-13.92 13.21c-10 1.55-14.64 5.71-14.64 14s4.64 13.09 11.19 13.09c9.28 0 16.3-9.16 17.37-19.16V879zM501.13 852.33h9.28v-15.47l10.36-4.16v19.63h20.7l-.59 1.19h-20.11v45.34c0 7.38 3.21 10.71 8.09 10.71 8.33 0 13.09-6.78 13.57-17.73l1.19.12c-.6 11.19-5.48 19.4-17.14 19.4-10 0-16.19-5.83-16.07-16.31v-41.53h-9.28zM554 826h10.82v13.09H554zm10.59 84.14h-10.51v-57.81h10.48zM576.93 881.37c0-16.9 12.85-30.23 29-30.23s29.15 13.33 29.15 30.23c0 16.66-12.85 30-29.15 30s-29-13.37-29-30zm11.19 0c0 20.23 6.66 28.92 17.85 28.92s18-8.69 18-28.92c0-20.47-6.67-29.16-18-29.16s-17.85 8.69-17.85 29.16zM657.85 910.17h-10.47v-57.84h10l.47 14.64c2.74-9.76 10.59-15.83 20.83-15.83 12.25 0 19.16 8 19.16 20v39h-10.48v-42c0-8.45-3.21-14.76-12.37-14.76-8.69 0-16.9 8.45-17.14 20.35z"/></g><g fill="#fff"><path d="M81.09 56.9h10.79v54.52c0 17.83-12.31 28.73-29.43 28.73-15.48 0-25.57-9.61-25.57-23 0-7.39 4-13.37 8.21-15.83l.47.94a17.59 17.59 0 00-7.51 14.89c0 12.78 9.74 21.46 22.75 21.46 14.08 0 20.29-9.5 20.29-24.51zM110.64 56.9h10.9v39.16h50.66V56.9H183V139h-10.8V97.35h-50.66V139h-10.9z"/></g></svg>