<svg data-name="Layer 1" xmlns="http://www.w3.org/2000/svg" width="1000" height="1000"><path fill="#e35a25" d="M0 0h1000v1000H0z"/><g fill="#fff"><path d="M44.66 826.86h55.81v1.31H55.72v38.44h33.21v1.31H55.72v40.94H102v1.31H44.66zM163.18 910.17h-10.47v-42c0-8.09-3-14.64-11.66-14.64-8.09 0-15.35 7.62-15.83 19.76v36.89h-10.47v-57.85h10l.47 14.28c2.74-9.76 9.52-15.47 19.87-15.47s16.67 6.19 17.86 16.42c2.61-10.23 9.63-16.42 20.11-16.42 12 0 18.09 8 18.09 20.71v38.32h-10.48v-42c0-8.09-3-14.64-11.66-14.64-8.09 0-15.35 7.62-15.83 19.76zM251.6 868c0-9.64-5-15.59-15.59-15.59-10.35 0-17.73 5.83-17.73 14.16 0 4 1.31 6.07 4.05 8.21l-.72.84a10.45 10.45 0 01-4.52-9c0-8.92 7.73-15.47 21.18-15.47 16.07 0 23.68 7.74 23.68 20.11v38.92h-9.28l-.83-16.66c-2.14 8.45-9.52 17.85-22 17.85-9.88 0-17-5.6-17-14.52 0-10.59 11.19-14.52 22.5-16.42l16.3-2.62zm-13.92 13.21c-10 1.55-14.64 5.71-14.64 14s4.64 13.09 11.19 13.09c9.28 0 16.3-9.16 17.37-19.16V879zM278.25 826h10.83v13.09h-10.83zm10.59 84.14h-10.47v-57.81h10.47zM316.81 910.17h-10.47V821h10.47z"/></g><g fill="#fff"><path d="M81.09 56.9h10.79v54.52c0 17.83-12.31 28.73-29.43 28.73-15.48 0-25.57-9.61-25.57-23 0-7.39 4-13.37 8.21-15.83l.47.94a17.59 17.59 0 00-7.51 14.89c0 12.78 9.74 21.46 22.75 21.46 14.08 0 20.29-9.5 20.29-24.51zM110.64 56.9h10.9v39.16h50.66V56.9H183V139h-10.8V97.35h-50.66V139h-10.9z"/></g></svg>