<?xml version="1.0" encoding="utf-8"?>
<!-- Generator: Adobe Illustrator 25.0.1, SVG Export Plug-In . SVG Version: 6.00 Build 0)  -->
<svg version="1.1" id="Layer_1" xmlns="http://www.w3.org/2000/svg" xmlns:xlink="http://www.w3.org/1999/xlink" x="0px" y="0px"
	 viewBox="0 0 1000 1000" style="enable-background:new 0 0 1000 1000;" xml:space="preserve">
<style type="text/css">
	.st0{fill:#A4515D;}
	.st1{fill:#FFFFFF;}
</style>
<rect class="st0" width="1000" height="1000"/>
<g>
	<path class="st1" d="M79.2,825.7c14.8,0,26.5,7,31.7,21.4l-1.2,0.5c-4.6-13.2-15.5-20.3-28.6-20.3c-18.4,0-30.7,14.8-30.7,41.3
		s12.2,41.3,30.7,41.3c13.2,0,24.2-6.8,29-20.2l1.2,0.5c-5.4,14.4-17.3,21.3-32,21.3c-23,0-41.2-17.6-41.2-42.6
		S56.2,825.7,79.2,825.7z"/>
	<path class="st1" d="M118,881.4c0-16.9,12.9-30.2,29-30.2s29.1,13.3,29.1,30.2c0,16.7-12.9,30-29.1,30S118,898,118,881.4z
		 M129.2,881.4c0,20.2,6.7,28.9,17.9,28.9s18-8.7,18-28.9c0-20.5-6.7-29.2-18-29.2S129.1,860.9,129.2,881.4L129.2,881.4z"/>
	<path class="st1" d="M198.9,910.2h-10.5v-57.8h10l0.5,14.6c2.7-9.8,10.6-15.8,20.8-15.8c12.2,0,19.2,8,19.2,20v39h-10.5v-42
		c0-8.5-3.2-14.8-12.4-14.8c-8.7,0-16.9,8.5-17.1,20.3V910.2z"/>
	<path class="st1" d="M258.1,863.4c0,6.4,4.2,8.7,11.3,10.5l11.1,3c10.2,2.6,16.5,6.5,16.5,15.5c0,11.4-9.8,19-23.5,19
		c-11.8,0-22-6.2-24.5-16.4l1.2-0.5c2.4,10.2,12.8,15.7,23.3,15.7c9.2,0,16.5-4.5,16.5-12.9c0-6.3-5.1-9.2-12.1-10.9l-11.5-2.9
		c-8.9-2.3-14.9-6.3-14.9-14.8c0-10.3,9.8-17.6,21.8-17.6c9.8,0,18,4.2,20.8,13.2L293,865c-2.9-9-10.4-12.6-19.6-12.6
		C264.5,852.3,258.1,857.1,258.1,863.4z"/>
	<path class="st1" d="M347.9,852.3h10.5v57.8h-10l-0.5-14.6c-2.6,9.8-9.9,15.8-20.1,15.8c-11.8,0-18.8-8.2-18.8-20.2v-38.8h10.5
		v41.8c0,8.3,3.2,15,12,15c8.6,0,16.3-8.6,16.4-20.5L347.9,852.3z"/>
	<path class="st1" d="M386.1,910.2h-10.5V821h10.5V910.2z"/>
	<path class="st1" d="M395.3,852.3h9.3v-15.5l10.4-4.2v19.6h20.7l-0.6,1.2H415v45.3c0,7.4,3.2,10.7,8.1,10.7
		c8.3,0,13.1-6.8,13.6-17.7l1.2,0.1c-0.6,11.2-5.5,19.4-17.1,19.4c-10,0-16.2-5.8-16.1-16.3v-41.5h-9.3L395.3,852.3z"/>
	<path class="st1" d="M482.5,868c0-9.6-5-15.6-15.6-15.6c-10.4,0-17.7,5.8-17.7,14.2c0,4,1.3,6.1,4,8.2l-0.7,0.8
		c-2.9-2-4.7-5.4-4.5-9c0-8.9,7.7-15.5,21.2-15.5c16.1,0,23.7,7.7,23.7,20.1v38.9h-9.3l-0.8-16.7c-2.1,8.5-9.5,17.8-22,17.8
		c-9.9,0-17-5.6-17-14.5c0-10.6,11.2-14.5,22.5-16.4l16.3-2.6V868z M468.5,881.2c-10,1.5-14.6,5.7-14.6,14s4.6,13.1,11.2,13.1
		c9.3,0,16.3-9.2,17.4-19.2V879L468.5,881.2z"/>
	<path class="st1" d="M501.1,852.3h9.3v-15.5l10.4-4.2v19.6h20.7l-0.6,1.2h-20.1v45.3c0,7.4,3.2,10.7,8.1,10.7
		c8.3,0,13.1-6.8,13.6-17.7l1.2,0.1c-0.6,11.2-5.5,19.4-17.1,19.4c-10,0-16.2-5.8-16.1-16.3v-41.5h-9.3L501.1,852.3z"/>
	<path class="st1" d="M554,826h10.8v13.1H554V826z M564.6,910.1h-10.5v-57.8h10.5L564.6,910.1z"/>
	<path class="st1" d="M576.9,881.4c0-16.9,12.8-30.2,29-30.2s29.2,13.3,29.2,30.2c0,16.7-12.8,30-29.2,30S576.9,898,576.9,881.4z
		 M588.1,881.4c0,20.2,6.7,28.9,17.8,28.9s18-8.7,18-28.9c0-20.5-6.7-29.2-18-29.2S588.1,860.9,588.1,881.4z"/>
	<path class="st1" d="M657.8,910.2h-10.5v-57.8h10l0.5,14.6c2.7-9.8,10.6-15.8,20.8-15.8c12.2,0,19.2,8,19.2,20v39h-10.5v-42
		c0-8.5-3.2-14.8-12.4-14.8c-8.7,0-16.9,8.5-17.1,20.3V910.2z"/>
</g>
<g>
	<path class="st1" d="M81.1,56.9h10.8v54.5c0,17.8-12.3,28.7-29.4,28.7c-15.5,0-25.6-9.6-25.6-23c0-7.4,4-13.4,8.2-15.8l0.5,0.9
		c-4.8,3.4-7.7,9-7.5,14.9c0,12.8,9.7,21.5,22.8,21.5c14.1,0,20.3-9.5,20.3-24.5V56.9z"/>
	<path class="st1" d="M110.6,56.9h10.9v39.2h50.7V56.9H183V139h-10.8V97.3h-50.7V139h-10.9V56.9z"/>
</g>
</svg>
