<svg version="1.1" id="Layer_1" xmlns="http://www.w3.org/2000/svg" x="0" y="0" viewBox="0 0 1000 1000" xml:space="preserve"><style>.st1{fill:#fff}</style><path fill="#a4515d" d="M0 0h1000v1000H0z"/><path class="st1" d="M44.7 826.9h55.8v1.3H55.7v38.4h33.2v1.3H55.7v40.9H102v1.3H44.7v-83.2zM163.2 910.2h-10.5v-42c0-8.1-3-14.6-11.7-14.6-8.1 0-15.3 7.6-15.8 19.8v36.9h-10.5v-57.8h10l.5 14.3c2.7-9.8 9.5-15.5 19.9-15.5s16.7 6.2 17.9 16.4c2.6-10.2 9.6-16.4 20.1-16.4 12 0 18.1 8 18.1 20.7v38.3h-10.5v-42c0-8.1-3-14.6-11.7-14.6-8.1 0-15.4 7.6-15.8 19.8v36.7zM251.6 868c0-9.6-5-15.6-15.6-15.6-10.4 0-17.7 5.8-17.7 14.2 0 4 1.3 6.1 4.1 8.2l-.7.8c-2.9-2-4.7-5.4-4.5-9 0-8.9 7.7-15.5 21.2-15.5 16.1 0 23.7 7.7 23.7 20.1v38.9h-9.3l-.8-16.7c-2.1 8.5-9.5 17.8-22 17.8-9.9 0-17-5.6-17-14.5 0-10.6 11.2-14.5 22.5-16.4l16.3-2.6-.2-9.7zm-13.9 13.2c-10 1.5-14.6 5.7-14.6 14s4.6 13.1 11.2 13.1c9.3 0 16.3-9.2 17.4-19.2V879l-14 2.2zM278.2 826H289v13.1h-10.8V826zm10.6 84.1h-10.5v-57.8h10.5v57.8zM316.8 910.2h-10.5V821h10.5v89.2z"/><g><path class="st1" d="M81.1 56.9h10.8v54.5c0 17.8-12.3 28.7-29.4 28.7-15.5 0-25.6-9.6-25.6-23 0-7.4 4-13.4 8.2-15.8l.5.9c-4.8 3.4-7.7 9-7.5 14.9 0 12.8 9.7 21.5 22.8 21.5 14.1 0 20.3-9.5 20.3-24.5V56.9zM110.6 56.9h10.9v39.2h50.7V56.9H183V139h-10.8V97.3h-50.7V139h-10.9V56.9z"/></g></svg>