<svg version="1.1" id="Layer_1" xmlns="http://www.w3.org/2000/svg" x="0" y="0" viewBox="0 0 1000 1000" xml:space="preserve"><style>.st1{fill:#fff}</style><path fill="#a4515d" d="M0 0h1000v1000H0z"/><path class="st1" d="M79.2 825.7c14.8 0 26.5 7 31.7 21.4l-1.2.5c-4.6-13.2-15.5-20.3-28.6-20.3-18.4 0-30.7 14.8-30.7 41.3s12.2 41.3 30.7 41.3c13.2 0 24.2-6.8 29-20.2l1.2.5c-5.4 14.4-17.3 21.3-32 21.3-23 0-41.2-17.6-41.2-42.6s18.1-43.2 41.1-43.2zM118 881.4c0-16.9 12.9-30.2 29-30.2s29.1 13.3 29.1 30.2c0 16.7-12.9 30-29.1 30s-29-13.4-29-30zm11.2 0c0 20.2 6.7 28.9 17.9 28.9s18-8.7 18-28.9c0-20.5-6.7-29.2-18-29.2s-18 8.7-17.9 29.2zM198.9 910.2h-10.5v-57.8h10l.5 14.6c2.7-9.8 10.6-15.8 20.8-15.8 12.2 0 19.2 8 19.2 20v39h-10.5v-42c0-8.5-3.2-14.8-12.4-14.8-8.7 0-16.9 8.5-17.1 20.3v36.5zM258.1 863.4c0 6.4 4.2 8.7 11.3 10.5l11.1 3c10.2 2.6 16.5 6.5 16.5 15.5 0 11.4-9.8 19-23.5 19-11.8 0-22-6.2-24.5-16.4l1.2-.5c2.4 10.2 12.8 15.7 23.3 15.7 9.2 0 16.5-4.5 16.5-12.9 0-6.3-5.1-9.2-12.1-10.9l-11.5-2.9c-8.9-2.3-14.9-6.3-14.9-14.8 0-10.3 9.8-17.6 21.8-17.6 9.8 0 18 4.2 20.8 13.2l-1.1.7c-2.9-9-10.4-12.6-19.6-12.6-8.9-.1-15.3 4.7-15.3 11zM347.9 852.3h10.5v57.8h-10l-.5-14.6c-2.6 9.8-9.9 15.8-20.1 15.8-11.8 0-18.8-8.2-18.8-20.2v-38.8h10.5v41.8c0 8.3 3.2 15 12 15 8.6 0 16.3-8.6 16.4-20.5v-36.3zM386.1 910.2h-10.5V821h10.5v89.2zM395.3 852.3h9.3v-15.5l10.4-4.2v19.6h20.7l-.6 1.2H415v45.3c0 7.4 3.2 10.7 8.1 10.7 8.3 0 13.1-6.8 13.6-17.7l1.2.1c-.6 11.2-5.5 19.4-17.1 19.4-10 0-16.2-5.8-16.1-16.3v-41.5h-9.3l-.1-1.1zM482.5 868c0-9.6-5-15.6-15.6-15.6-10.4 0-17.7 5.8-17.7 14.2 0 4 1.3 6.1 4 8.2l-.7.8c-2.9-2-4.7-5.4-4.5-9 0-8.9 7.7-15.5 21.2-15.5 16.1 0 23.7 7.7 23.7 20.1v38.9h-9.3l-.8-16.7c-2.1 8.5-9.5 17.8-22 17.8-9.9 0-17-5.6-17-14.5 0-10.6 11.2-14.5 22.5-16.4l16.3-2.6V868zm-14 13.2c-10 1.5-14.6 5.7-14.6 14s4.6 13.1 11.2 13.1c9.3 0 16.3-9.2 17.4-19.2V879l-14 2.2zM501.1 852.3h9.3v-15.5l10.4-4.2v19.6h20.7l-.6 1.2h-20.1v45.3c0 7.4 3.2 10.7 8.1 10.7 8.3 0 13.1-6.8 13.6-17.7l1.2.1c-.6 11.2-5.5 19.4-17.1 19.4-10 0-16.2-5.8-16.1-16.3v-41.5h-9.3l-.1-1.1zM554 826h10.8v13.1H554V826zm10.6 84.1h-10.5v-57.8h10.5v57.8zM576.9 881.4c0-16.9 12.8-30.2 29-30.2s29.2 13.3 29.2 30.2c0 16.7-12.8 30-29.2 30s-29-13.4-29-30zm11.2 0c0 20.2 6.7 28.9 17.8 28.9s18-8.7 18-28.9c0-20.5-6.7-29.2-18-29.2s-17.8 8.7-17.8 29.2zM657.8 910.2h-10.5v-57.8h10l.5 14.6c2.7-9.8 10.6-15.8 20.8-15.8 12.2 0 19.2 8 19.2 20v39h-10.5v-42c0-8.5-3.2-14.8-12.4-14.8-8.7 0-16.9 8.5-17.1 20.3v36.5z"/><g><path class="st1" d="M81.1 56.9h10.8v54.5c0 17.8-12.3 28.7-29.4 28.7-15.5 0-25.6-9.6-25.6-23 0-7.4 4-13.4 8.2-15.8l.5.9c-4.8 3.4-7.7 9-7.5 14.9 0 12.8 9.7 21.5 22.8 21.5 14.1 0 20.3-9.5 20.3-24.5V56.9zM110.6 56.9h10.9v39.2h50.7V56.9H183V139h-10.8V97.3h-50.7V139h-10.9V56.9z"/></g></svg>