<svg id="Layer_1" data-name="Layer 1" xmlns="http://www.w3.org/2000/svg" width="222.02" height="126.71" viewBox="0 0 222.02 126.71">
  <g>
    <path d="M100.48,78.25h16.35v82.69c0,27-18.66,43.56-44.63,43.56-23.47,0-38.76-14.58-38.76-34.85,0-11.2,6.05-20.27,12.45-24l.71,1.42c-6.22,4.09-11.38,12.09-11.38,22.58,0,19.38,14.76,32.54,34.49,32.54,21.34,0,30.77-14.4,30.77-37.16Z" transform="translate(-33.21 -78.02)" fill="#fff" stroke="#000" stroke-miterlimit="10" stroke-width="0.47"/>
    <path d="M145.29,78.25h16.53v59.39h76.82V78.25H255V202.72H238.64V139.6H161.82v63.12H145.29Z" transform="translate(-33.21 -78.02)" fill="#fff" stroke="#000" stroke-miterlimit="10" stroke-width="0.47"/>
  </g>
</svg>
