<?xml version="1.0" encoding="utf-8"?>
<!-- Generator: Adobe Illustrator 25.0.1, SVG Export Plug-In . SVG Version: 6.00 Build 0)  -->
<svg version="1.1" id="Layer_1" xmlns:sketch="http://www.bohemiancoding.com/sketch/ns"
	 xmlns="http://www.w3.org/2000/svg" xmlns:xlink="http://www.w3.org/1999/xlink" x="0px" y="0px" viewBox="0 0 100 100"
	 style="enable-background:new 0 0 100 100;" xml:space="preserve">
<style type="text/css">
	.st0{fill-rule:evenodd;clip-rule:evenodd;fill:#B76E79;}
</style>
<desc>Created with Sketch.</desc>
<g sketch:type="MSPage">
	<g transform="translate(-315.000000, -495.000000)" sketch:type="MSArtboardGroup">
		<path sketch:type="MSShapeGroup" class="st0" d="M400,528.3c0.9,0,1.7-0.7,1.7-1.7c0-0.9-0.7-1.7-1.7-1.7h-70
			c-0.9,0-1.7,0.7-1.7,1.7c0,0.9,0.7,1.7,1.7,1.7H400z M400,545c0.9,0,1.7-0.7,1.7-1.7c0-0.9-0.7-1.7-1.7-1.7h-70
			c-0.9,0-1.7,0.7-1.7,1.7c0,0.9,0.7,1.7,1.7,1.7H400z M400,561.7c0.9,0,1.7-0.7,1.7-1.7s-0.7-1.7-1.7-1.7h-70
			c-0.9,0-1.7,0.7-1.7,1.7s0.7,1.7,1.7,1.7H400z"/>
	</g>
</g>
</svg>
