<svg data-name="Layer 1" xmlns="http://www.w3.org/2000/svg" width="1000" height="1000"><path fill="#037dbe" d="M0 0h1000v1000H0z"/><g fill="#fff"><path d="M83.93 669.36h-.48L46 587v81.16h-1.3v-83.3h12.09l31.78 69.74 28.2-69.74h11.31v83.31h-10.83V587zM170.56 669.36c-13.81 0-28.33-11.43-28.33-29.75 0-18.57 13.45-30.47 27.73-30.47 16.42 0 25.83 12.38 25.83 27.37h-42.25a29.79 29.79 0 00-.12 3.33c0 17.74 6.55 27.85 19.76 27.85 10.11 0 18.68-6.19 21.18-17.73l1.19.24c-2.74 12.14-11.78 19.16-24.99 19.16zm-17-34h31.54c0-14.75-3.57-25.11-15.12-25.11-8.59-.04-15.49 7.1-16.44 25.07zM218.51 668.17H208v-57.84h10l.47 14.64c2.74-9.76 10.59-15.83 20.83-15.83 12.26 0 19.16 8 19.16 20v39H248v-42c0-8.45-3.22-14.76-12.38-14.76-8.69 0-16.9 8.45-17.14 20.35zM267 610.33h9.28v-15.47l10.35-4.16v19.63h20.71l-.6 1.19h-20.16v45.34c0 7.38 3.21 10.71 8.09 10.71 8.33 0 13.09-6.78 13.57-17.73l1.19.12c-.6 11.19-5.47 19.4-17.14 19.4-10 0-16.18-5.83-16.06-16.31v-41.53H267zM354.05 626c0-9.64-5-15.59-15.59-15.59-10.35 0-17.73 5.83-17.73 14.16 0 4 1.31 6.07 4 8.21l-.72.84a10.47 10.47 0 01-4.52-9c0-8.92 7.74-15.47 21.18-15.47 16.07 0 23.69 7.74 23.69 20.11v38.92h-9.29l-.83-16.66c-2.14 8.45-9.52 17.85-22 17.85-9.87 0-17-5.6-17-14.52 0-10.59 11.18-14.52 22.49-16.42l16.3-2.62zm-13.92 13.21c-10 1.55-14.64 5.71-14.64 14s4.64 13.09 11.19 13.09c9.28 0 16.3-9.16 17.37-19.16V637zM391.3 668.17h-10.48V579h10.48zM438.18 584.86h11.07v39.75h51.41v-39.75h10.95v83.31h-10.95v-42.25h-51.41v42.25h-11.07zM554 669.36c-13.81 0-28.33-11.43-28.33-29.75 0-18.57 13.45-30.47 27.73-30.47 16.42 0 25.82 12.38 25.82 27.37H537a29.79 29.79 0 00-.12 3.33c0 17.74 6.55 27.85 19.75 27.85 10.12 0 18.69-6.19 21.19-17.73l1.19.24c-2.79 12.14-11.83 19.16-25.01 19.16zm-17-34h31.53c0-14.75-3.57-25.11-15.11-25.11-8.62-.04-15.52 7.1-16.42 25.07zM625.49 626c0-9.64-5-15.59-15.59-15.59-10.36 0-17.74 5.83-17.74 14.16 0 4 1.31 6.07 4.05 8.21l-.71.84a10.46 10.46 0 01-4.53-9c0-8.92 7.74-15.47 21.19-15.47 16.06 0 23.68 7.74 23.68 20.11v38.92h-9.28l-.84-16.66c-2.14 8.45-9.52 17.85-22 17.85-9.88 0-17-5.6-17-14.52 0-10.59 11.19-14.52 22.49-16.42l16.31-2.62zm-13.93 13.21c-10 1.55-14.64 5.71-14.64 14s4.65 13.09 11.19 13.09c9.28 0 16.3-9.16 17.38-19.16V637zM662.73 668.17h-10.47V579h10.47zM672 610.33h9.28v-15.47l10.35-4.16v19.63h20.71l-.59 1.19h-20.11v45.34c0 7.38 3.22 10.71 8.1 10.71 8.33 0 13.09-6.78 13.56-17.73l1.19.12c-.59 11.19-5.47 19.4-17.13 19.4-10 0-16.19-5.83-16.07-16.31v-41.53H672zM735.44 579v46c2.73-9.76 10.59-15.83 20.82-15.83 12.26 0 19.16 8 19.16 20v39H765v-42c0-8.45-3.21-14.76-12.38-14.76-8.68 0-16.9 8.45-17.13 20.35v36.42H725V579zM93.57 811c-2.27-2.26-4.41-4.53-7.5-7.86a32.86 32.86 0 01-23.45 9.17C47 812.28 38 801.8 38 789.78c0-10.94 6.55-18.44 15.71-23.44V766c-4.18-5.25-6.71-11.08-6.71-16.8 0-9.75 7-19.75 20.35-19.75 10 0 17.73 6.66 17.73 17 0 8.45-4.88 15.11-17.62 21.42v.35c6.79 7.86 14.4 16.67 19.52 22.38 3.69-5.6 6.19-13.33 7.74-23.45h9.52c-2.15 12.62-5.6 22.61-11.55 29.64 4.29 4.52 8.45 9 13.21 14.16zM81 797.16c-4.76-5.23-13.68-15-22.61-25.23-4.33 2.74-10.39 7.86-10.39 16.31 0 9.16 6.78 16.18 16.42 16.18A22.4 22.4 0 0081 797.16zm-24.44-48.91c0 5.71 2.61 10.12 6.06 14.4C70.72 758 76 753.73 76 746.94c0-4.88-2.73-10.35-9.28-10.35s-10.16 5.47-10.16 11.66zM90.59 895.1L68.93 955h-.47L36 870.46h11.39l26 68.43 16.54-45.81-8.57-22.62h11L118 939.61l25-69.15h1.43L113.8 955h-.48zM170.68 955c-13.81 0-28.33-11.43-28.33-29.75 0-18.57 13.45-30.47 27.73-30.47 16.42 0 25.83 12.38 25.83 27.37h-42.25a29.79 29.79 0 00-.12 3.33c0 17.74 6.55 27.85 19.75 27.85 10.12 0 18.69-6.19 21.19-17.73l1.19.24c-2.74 12.1-11.78 19.16-24.99 19.16zm-17-34h31.52c0-14.75-3.58-25.11-15.12-25.11-8.57-.08-15.47 7.11-16.42 25.03zM218.63 953.77h-10.47v-89.14h10.47zM246.36 953.77h-10.47v-89.14h10.47zM273 953.77h-9.4v-89.14h10.47v46.18A21.64 21.64 0 01295 894.74c13.56 0 25.46 11.43 25.46 29.75S308.83 955 295 955a21.58 21.58 0 01-20.95-16zm1.07-22.61c.24 12.61 8.21 21.54 18.21 21.54 10.95 0 17-12.14 17-28.21s-6.07-27.61-16.9-27.61c-9.52 0-18.09 8.57-18.33 21.42zM356.79 955c-13.81 0-28.33-11.43-28.33-29.75 0-18.57 13.45-30.47 27.73-30.47 16.42 0 25.83 12.38 25.83 27.37h-42.25a29.79 29.79 0 00-.12 3.33c0 17.74 6.55 27.85 19.75 27.85 10.12 0 18.69-6.19 21.19-17.73l1.19.24C379 947.94 370 955 356.79 955zm-17-34h31.54c0-14.75-3.58-25.11-15.12-25.11-8.59-.08-15.49 7.11-16.44 25.03zM394.15 869.63H405v13.09h-10.85zm10.59 84.14h-10.47v-57.84h10.47zM432.47 953.77H422v-57.84h10l.48 14.64c2.74-9.76 10.59-15.83 20.82-15.83 12.26 0 19.16 8 19.16 20v39H462v-42c0-8.45-3.21-14.76-12.38-14.76-8.68 0-16.89 8.45-17.13 20.35zM508.87 980.54c-16.55 0-28.68-5.23-28.68-15.94 0-7.86 8.09-12.74 15.94-12.86-5.83-1.07-10.11-5-10.11-10.71s4-9.4 9.4-11.66a18 18 0 01-9.28-15.59c0-10.47 9.64-19 23.32-19a26.72 26.72 0 0114.88 4.17c3.21-5.12 7-9.17 12.73-9.17 5.12 0 8.33 3.22 8.33 8.09a10.28 10.28 0 01-2.38 6.55l-.95-.83a8.59 8.59 0 002.14-5.72c0-4.28-3-6.9-7.14-6.9-4.88 0-8.81 3.81-11.78 8.69a17.52 17.52 0 017.61 14.16c0 10.71-9.87 19.28-23.44 19.28a26.17 26.17 0 01-13-3.09c-4.17 1.66-7.38 4.16-7.38 7.61s3.45 5.12 8.93 5.12h24.75c11.42 0 19.16 4.64 19.16 15.23.08 14.24-16.04 22.57-33.05 22.57zm-10.48-28.08c-7.26 0-17 3.57-17 12.14 0 10.11 11.78 14.75 27.49 14.75 14.87 0 28.8-6.42 28.8-17.37 0-6.07-4.17-9.52-13.1-9.52zm11.07-56.65c-8.69 0-12.85 6.43-12.85 18 0 11.78 4.16 18.21 12.85 18.21s12.85-6.43 12.85-18.21c0-11.57-4.16-18-12.85-18z"/></g><g fill="#fff"><path d="M81.09 56.9h10.79v54.52c0 17.83-12.31 28.73-29.43 28.73-15.48 0-25.57-9.61-25.57-23 0-7.39 4-13.37 8.21-15.83l.47.94a17.59 17.59 0 00-7.51 14.89c0 12.78 9.74 21.46 22.75 21.46 14.08 0 20.29-9.5 20.29-24.51zM110.64 56.9h10.9v39.16h50.66V56.9H183V139h-10.8V97.35h-50.66V139h-10.9z"/></g></svg>