<svg data-name="Layer 1" xmlns="http://www.w3.org/2000/svg" width="1000" height="1000"><path fill="#f2dd6e" d="M0 0h1000v1000H0z"/><g fill="#fff"><path d="M106.3 826.86h1.31l-30.23 48.56v34.75H66.43v-34.51L36 826.86h12.23l28.68 46.77zM117.72 826h10.83v13.09h-10.83zm10.59 84.14h-10.47v-57.81h10.47zM156 910.17h-10.43v-57.84h10L156 867c2.74-9.76 10.59-15.83 20.82-15.83 12.26 0 19.16 8 19.16 20v39h-10.43v-42c0-8.45-3.21-14.76-12.38-14.76-8.68 0-16.89 8.45-17.13 20.35zM303.72 826.86H305l-30.2 48.56v34.75h-10.95v-34.51l-30.46-48.8h12.25l28.68 46.77zM299.43 881.37c0-16.9 12.85-30.23 29-30.23s29.15 13.33 29.15 30.23c0 16.66-12.85 30-29.15 30s-29-13.37-29-30zm11.19 0c0 20.23 6.66 28.92 17.85 28.92s18-8.69 18-28.92c0-20.47-6.67-29.16-18-29.16s-17.85 8.69-17.85 29.16zM389.87 936.94c-16.54 0-28.68-5.23-28.68-15.94 0-7.86 8.09-12.74 15.95-12.86-5.83-1.07-10.12-5-10.12-10.71s4.05-9.4 9.4-11.66a18 18 0 01-9.28-15.59c0-10.47 9.64-19 23.33-19a26.68 26.68 0 0114.87 4.17c3.21-5.12 7-9.17 12.73-9.17 5.12 0 8.33 3.22 8.33 8.1a10.27 10.27 0 01-2.38 6.54l-.95-.83a8.56 8.56 0 002.14-5.71c0-4.29-3-6.91-7.14-6.91-4.87 0-8.8 3.81-11.78 8.69a17.53 17.53 0 017.62 14.16c0 10.71-9.88 19.28-23.44 19.28a26.21 26.21 0 01-13-3.09c-4.16 1.66-7.37 4.16-7.37 7.61s3.45 5.12 8.92 5.12h24.75c11.43 0 19.16 4.64 19.16 15.23.07 14.24-16.04 22.57-33.06 22.57zm-10.47-28.08c-7.26 0-17 3.57-17 12.14 0 10.11 11.78 14.75 27.49 14.75 14.88 0 28.8-6.42 28.8-17.37 0-6.07-4.17-9.52-13.09-9.52zm11.07-56.65c-8.69 0-12.86 6.43-12.86 18 0 11.78 4.17 18.21 12.86 18.21s12.85-6.43 12.85-18.21c0-11.57-4.17-18-12.85-18zM466.75 868c0-9.64-5-15.59-15.59-15.59-10.36 0-17.74 5.83-17.74 14.16 0 4 1.31 6.07 4.05 8.21l-.71.84a10.46 10.46 0 01-4.53-9c0-8.92 7.74-15.47 21.19-15.47 16.06 0 23.68 7.74 23.68 20.11v38.92h-9.28l-.82-16.67c-2.14 8.45-9.52 17.85-22 17.85-9.88 0-17-5.6-17-14.52 0-10.59 11.19-14.52 22.49-16.42l16.31-2.62zm-13.93 13.21c-10 1.55-14.64 5.71-14.64 14s4.65 13.09 11.19 13.09c9.28 0 16.3-9.16 17.38-19.16V879zM513.39 852.33h9.28v-15.47L533 832.7v19.63h20.7l-.59 1.19H533v45.34c0 7.38 3.21 10.71 8.09 10.71 8.33 0 13.09-6.78 13.56-17.73l1.19.12c-.59 11.19-5.47 19.4-17.13 19.4-10 0-16.19-5.83-16.07-16.31v-41.53h-9.28zM576.82 821v46c2.73-9.76 10.59-15.83 20.82-15.83 12.26 0 19.16 8 19.16 20v39h-10.47v-42c0-8.45-3.21-14.76-12.38-14.76-8.68 0-16.9 8.45-17.13 20.35v36.42h-10.48V821zM656.67 911.36c-13.81 0-28.33-11.43-28.33-29.75 0-18.57 13.45-30.47 27.73-30.47 16.42 0 25.82 12.38 25.82 27.37h-42.24a29.79 29.79 0 00-.12 3.33c0 17.74 6.54 27.85 19.75 27.85 10.12 0 18.69-6.19 21.19-17.73l1.19.24c-2.74 12.14-11.78 19.16-24.99 19.16zm-17-34h31.53c0-14.75-3.57-25.11-15.11-25.11-8.59-.04-15.49 7.1-16.44 25.07zM724 851.14c7.73 0 11.9 4.88 11.9 11.54a12.66 12.66 0 01-3.81 9.29l-.83-.84a11.08 11.08 0 003.45-8.45c0-6.18-3.81-10.35-10.71-10.35-11.31 0-18.8 14.52-19.4 25.59v32.25h-10.45v-57.84h10l.48 18.8c2.49-10.23 9.63-19.99 19.37-19.99zM779.59 868c0-9.64-5-15.59-15.59-15.59-10.35 0-17.73 5.83-17.73 14.16 0 4 1.31 6.07 4.05 8.21l-.72.84a10.45 10.45 0 01-4.52-9c0-8.92 7.73-15.47 21.18-15.47 16.07 0 23.68 7.74 23.68 20.11v38.92h-9.28l-.83-16.66c-2.14 8.45-9.52 17.85-22 17.85-9.87 0-17-5.6-17-14.52 0-10.59 11.19-14.52 22.5-16.42l16.3-2.62zm-13.92 13.21c-10 1.55-14.64 5.71-14.64 14s4.64 13.09 11.19 13.09c9.28 0 16.3-9.16 17.37-19.16V879zM816.84 935.75h-10.48v-83.42h10l.48 14.88a21.63 21.63 0 0120.94-16.07c13.57 0 25.47 11.43 25.47 29.75s-11.67 30.47-25.47 30.47a21.54 21.54 0 01-20.94-16zm0-48.19c.23 12.61 8.21 21.54 18.2 21.54 11 0 17-12.14 17-28.21s-6.07-27.61-16.9-27.61c-9.52 0-18.09 8.57-18.32 21.42zM863.13 926.11a10.44 10.44 0 011.66-6l1.07.48a11 11 0 00-1.54 5.47c0 5.72 3.69 9.64 9.28 9.64 7.26 0 11.07-6.19 16.78-18.68l3.21-7.26-26.66-57.48H878l20.71 46.17 20.71-46.17h1.42l-29.27 65.1c-5.83 13.09-10.24 19.51-18 19.51-6.28.05-10.44-4.35-10.44-10.78z"/></g><g fill="#fff"><path d="M81.09 56.9h10.79v54.52c0 17.83-12.31 28.73-29.43 28.73-15.48 0-25.57-9.61-25.57-23 0-7.39 4-13.37 8.21-15.83l.47.94a17.59 17.59 0 00-7.51 14.89c0 12.78 9.74 21.46 22.75 21.46 14.08 0 20.29-9.5 20.29-24.51zM110.64 56.9h10.9v39.16h50.66V56.9H183V139h-10.8V97.35h-50.66V139h-10.9z"/></g></svg>