<svg id="Layer_1" data-name="Layer 1" xmlns="http://www.w3.org/2000/svg" width="1000" height="1000" viewBox="0 0 1000 1000">
  <g>
    <rect width="1000" height="1000" fill="#66c4a7"/>
    <g>
      <path d="M45.89,816.92H58.28v44.49h57.55V816.92h12.25v93.25H115.83V862.88H58.28v47.29H45.89Z" transform="translate(0)" fill="#fff"/>
      <path d="M136.34,928a11.61,11.61,0,0,1,1.87-6.66l1.2.53a12.22,12.22,0,0,0-1.73,6.13c0,6.39,4.12,10.79,10.39,10.79,8.12,0,12.38-6.93,18.78-20.92l3.59-8.12-29.83-64.34H153l23.18,51.68,23.18-51.68H201l-32.77,72.86c-6.53,14.66-11.46,21.85-20.11,21.85C141,940.14,136.34,935.21,136.34,928Z" transform="translate(0)" fill="#fff"/>
      <path d="M223.06,938.81H211.34V845.43h11.19l.53,16.65a24.22,24.22,0,0,1,23.45-18c15.18,0,28.5,12.78,28.5,33.3s-13.05,34.1-28.5,34.1c-11.72,0-20.52-7.73-23.45-17.85Zm0-53.95C223.33,899,232.25,909,243.44,909c12.26,0,19.05-13.59,19.05-31.57s-6.79-30.91-18.91-30.91c-10.66,0-20.25,9.59-20.52,24Z" transform="translate(0)" fill="#fff"/>
      <path d="M300.46,910.17H288.74V845.43h11.19l.53,16.38c3.06-10.92,11.86-17.71,23.31-17.71,13.72,0,21.45,8.92,21.45,22.37v43.7H333.5v-47c0-9.45-3.6-16.51-13.86-16.51-9.72,0-18.91,9.45-19.18,22.78Z" transform="translate(0)" fill="#fff"/>
      <path d="M358.14,877.93c0-18.92,14.39-33.83,32.51-33.83s32.63,14.91,32.63,33.83c0,18.65-14.38,33.57-32.63,33.57S358.14,896.58,358.14,877.93Zm12.52,0c0,22.65,7.46,32.37,20,32.37s20.11-9.72,20.11-32.37c0-22.91-7.46-32.64-20.11-32.64S370.66,855,370.66,877.93Z" transform="translate(0)" fill="#fff"/>
      <path d="M428.08,845.43h10.39V828.11l11.59-4.66v22h23.18l-.67,1.33H450.06v50.75c0,8.26,3.6,12,9.06,12,9.32,0,14.65-7.59,15.18-19.85l1.34.14c-.67,12.52-6.13,21.71-19.19,21.71-11.19,0-18.11-6.53-18-18.25V846.76H428.08Z" transform="translate(0)" fill="#fff"/>
      <path d="M499.08,810.39v51.42c3.06-10.92,11.86-17.71,23.31-17.71,13.72,0,21.45,8.92,21.45,22.37v43.7H532.12v-47c0-9.45-3.6-16.51-13.86-16.51-9.72,0-18.91,9.45-19.18,22.78v40.76H487.36V810.39Z" transform="translate(0)" fill="#fff"/>
      <path d="M588.47,911.5c-15.46,0-31.71-12.79-31.71-33.3,0-20.78,15.06-34.1,31-34.1,18.38,0,28.91,13.85,28.91,30.63H569.42a34.54,34.54,0,0,0-.13,3.73c0,19.85,7.32,31.17,22.11,31.17,11.32,0,20.91-6.92,23.71-19.84l1.33.26C613.38,903.64,603.25,911.5,588.47,911.5Zm-19.05-38.1h35.3c0-16.52-4-28.11-16.92-28.11C578.21,845.29,570.48,853.29,569.42,873.4Z" transform="translate(0)" fill="#fff"/>
      <path d="M663.87,844.1c8.65,0,13.32,5.46,13.32,12.92a14.16,14.16,0,0,1-4.27,10.39l-.93-.94a12.37,12.37,0,0,0,3.86-9.45c0-6.93-4.26-11.59-12-11.59-12.66,0-21,16.25-21.72,28.64v36.1H630.43V845.43h11.19l.53,21C645,855,652.94,844.1,663.87,844.1Z" transform="translate(0)" fill="#fff"/>
      <path d="M726.08,863c0-10.79-5.6-17.45-17.46-17.45-11.58,0-19.84,6.53-19.84,15.85,0,4.53,1.46,6.8,4.53,9.19l-.8.94a11.7,11.7,0,0,1-5.06-10.13c0-10,8.65-17.31,23.71-17.31,18,0,26.51,8.65,26.51,22.51v43.56h-10.4l-.93-18.65c-2.4,9.46-10.65,20-24.64,20-11.06,0-19.05-6.26-19.05-16.25,0-11.86,12.52-16.25,25.18-18.39l18.25-2.93ZM710.49,877.8c-11.19,1.73-16.38,6.39-16.38,15.72s5.19,14.65,12.52,14.65c10.39,0,18.25-10.26,19.45-21.45V875.27Z" transform="translate(0)" fill="#fff"/>
      <path d="M767.77,938.81H756.05V845.43h11.19l.53,16.65a24.21,24.21,0,0,1,23.45-18c15.18,0,28.5,12.78,28.5,33.3s-13.05,34.1-28.5,34.1c-11.73,0-20.52-7.73-23.45-17.85Zm0-53.95C768,899,777,909,788.15,909c12.26,0,19.05-13.59,19.05-31.57s-6.79-30.91-18.91-30.91c-10.66,0-20.25,9.59-20.52,24Z" transform="translate(0)" fill="#fff"/>
      <path d="M819.59,928a11.61,11.61,0,0,1,1.87-6.66l1.2.53a12.22,12.22,0,0,0-1.74,6.13c0,6.39,4.13,10.79,10.4,10.79,8.12,0,12.38-6.93,18.78-20.92l3.59-8.12-29.83-64.34h12.38l23.18,51.68,23.18-51.68h1.6l-32.77,72.86C844.9,933,840,940.14,831.32,940.14,824.25,940.14,819.59,935.21,819.59,928Z" transform="translate(0)" fill="#fff"/>
    </g>
    <g>
      <path d="M81.09,56.9H91.88v54.52c0,17.83-12.31,28.73-29.43,28.73-15.48,0-25.57-9.61-25.57-23,0-7.39,4-13.37,8.21-15.83l.47.94a17.59,17.59,0,0,0-7.51,14.89c0,12.78,9.74,21.46,22.75,21.46,14.08,0,20.29-9.5,20.29-24.51Z" transform="translate(0)" fill="#fff"/>
      <path d="M110.64,56.9h10.9V96.06H172.2V56.9H183V139H172.2V97.35H121.54V139h-10.9Z" transform="translate(0)" fill="#fff"/>
    </g>
  </g>
</svg>
