<svg data-name="Layer 1" xmlns="http://www.w3.org/2000/svg" width="1000" height="1000"><path fill="#66c4a7" d="M0 0h1000v1000H0z"/><g fill="#fff"><path d="M45.89 816.92h12.39v44.49h57.55v-44.49h12.25v93.25h-12.25v-47.29H58.28v47.29H45.89zM136.34 928a11.61 11.61 0 011.87-6.66l1.2.53a12.22 12.22 0 00-1.73 6.13c0 6.39 4.12 10.79 10.39 10.79 8.12 0 12.38-6.93 18.78-20.92l3.59-8.12-29.83-64.34H153l23.18 51.68 23.18-51.68H201l-32.77 72.86c-6.53 14.66-11.46 21.85-20.11 21.85-7.12.02-11.78-4.91-11.78-12.12zM223.06 938.81h-11.72v-93.38h11.19l.53 16.65a24.22 24.22 0 0123.45-18c15.18 0 28.5 12.78 28.5 33.3s-13.05 34.1-28.5 34.1c-11.72 0-20.52-7.73-23.45-17.85zm0-53.95c.27 14.14 9.19 24.14 20.38 24.14 12.26 0 19.05-13.59 19.05-31.57s-6.79-30.91-18.91-30.91c-10.66 0-20.25 9.59-20.52 24zM300.46 910.17h-11.72v-64.74h11.19l.53 16.38c3.06-10.92 11.86-17.71 23.31-17.71 13.72 0 21.45 8.92 21.45 22.37v43.7H333.5v-47c0-9.45-3.6-16.51-13.86-16.51-9.72 0-18.91 9.45-19.18 22.78zM358.14 877.93c0-18.92 14.39-33.83 32.51-33.83s32.63 14.91 32.63 33.83c0 18.65-14.38 33.57-32.63 33.57s-32.51-14.92-32.51-33.57zm12.52 0c0 22.65 7.46 32.37 20 32.37s20.11-9.72 20.11-32.37c0-22.91-7.46-32.64-20.11-32.64s-20 9.71-20 32.64zM428.08 845.43h10.39v-17.32l11.59-4.66v22h23.18l-.67 1.33h-22.51v50.75c0 8.26 3.6 12 9.06 12 9.32 0 14.65-7.59 15.18-19.85l1.34.14c-.67 12.52-6.13 21.71-19.19 21.71-11.19 0-18.11-6.53-18-18.25v-46.52h-10.37zM499.08 810.39v51.42c3.06-10.92 11.86-17.71 23.31-17.71 13.72 0 21.45 8.92 21.45 22.37v43.7h-11.72v-47c0-9.45-3.6-16.51-13.86-16.51-9.72 0-18.91 9.45-19.18 22.78v40.76h-11.72v-99.81zM588.47 911.5c-15.46 0-31.71-12.79-31.71-33.3 0-20.78 15.06-34.1 31-34.1 18.38 0 28.91 13.85 28.91 30.63h-47.25a34.54 34.54 0 00-.13 3.73c0 19.85 7.32 31.17 22.11 31.17 11.32 0 20.91-6.92 23.71-19.84l1.33.26c-3.06 13.59-13.19 21.45-27.97 21.45zm-19.05-38.1h35.3c0-16.52-4-28.11-16.92-28.11-9.59 0-17.32 8-18.38 28.11zM663.87 844.1c8.65 0 13.32 5.46 13.32 12.92a14.16 14.16 0 01-4.27 10.39l-.93-.94a12.37 12.37 0 003.86-9.45c0-6.93-4.26-11.59-12-11.59-12.66 0-21 16.25-21.72 28.64v36.1h-11.7v-64.74h11.19l.53 21C645 855 652.94 844.1 663.87 844.1zM726.08 863c0-10.79-5.6-17.45-17.46-17.45-11.58 0-19.84 6.53-19.84 15.85 0 4.53 1.46 6.8 4.53 9.19l-.8.94a11.7 11.7 0 01-5.06-10.13c0-10 8.65-17.31 23.71-17.31 18 0 26.51 8.65 26.51 22.51v43.56h-10.4l-.93-18.65c-2.4 9.46-10.65 20-24.64 20-11.06 0-19.05-6.26-19.05-16.25 0-11.86 12.52-16.25 25.18-18.39l18.25-2.93zm-15.59 14.8c-11.19 1.73-16.38 6.39-16.38 15.72s5.19 14.65 12.52 14.65c10.39 0 18.25-10.26 19.45-21.45v-11.45zM767.77 938.81h-11.72v-93.38h11.19l.53 16.65a24.21 24.21 0 0123.45-18c15.18 0 28.5 12.78 28.5 33.3s-13.05 34.1-28.5 34.1c-11.73 0-20.52-7.73-23.45-17.85zm0-53.95C768 899 777 909 788.15 909c12.26 0 19.05-13.59 19.05-31.57s-6.79-30.91-18.91-30.91c-10.66 0-20.25 9.59-20.52 24zM819.59 928a11.61 11.61 0 011.87-6.66l1.2.53a12.22 12.22 0 00-1.74 6.13c0 6.39 4.13 10.79 10.4 10.79 8.12 0 12.38-6.93 18.78-20.92l3.59-8.12-29.83-64.34h12.38l23.18 51.68 23.18-51.68h1.6l-32.77 72.86C844.9 933 840 940.14 831.32 940.14c-7.07 0-11.73-4.93-11.73-12.14z"/></g><g fill="#fff"><path d="M81.09 56.9h10.79v54.52c0 17.83-12.31 28.73-29.43 28.73-15.48 0-25.57-9.61-25.57-23 0-7.39 4-13.37 8.21-15.83l.47.94a17.59 17.59 0 00-7.51 14.89c0 12.78 9.74 21.46 22.75 21.46 14.08 0 20.29-9.5 20.29-24.51zM110.64 56.9h10.9v39.16h50.66V56.9H183V139h-10.8V97.35h-50.66V139h-10.9z"/></g></svg>