<svg id="Layer_1" data-name="Layer 1" xmlns="http://www.w3.org/2000/svg" width="1000" height="1000" viewBox="0 0 1000 1000">
  <rect width="1000" height="1000" fill="#037dbe"/>
  <g>
    <path d="M83.93,669.36h-.48L46,587v81.16h-1.3V584.86H56.79L88.57,654.6l28.2-69.74h11.31v83.31H117.25V587Z" transform="translate(0)" fill="#fff"/>
    <path d="M170.56,669.36c-13.81,0-28.33-11.43-28.33-29.75,0-18.57,13.45-30.47,27.73-30.47,16.42,0,25.83,12.38,25.83,27.37H153.54a29.79,29.79,0,0,0-.12,3.33c0,17.74,6.55,27.85,19.76,27.85,10.11,0,18.68-6.19,21.18-17.73l1.19.24C192.81,662.34,183.77,669.36,170.56,669.36Zm-17-34h31.54c0-14.75-3.57-25.11-15.12-25.11C161.39,610.21,154.49,617.35,153.54,635.32Z" transform="translate(0)" fill="#fff"/>
    <path d="M218.51,668.17H208V610.33h10l.47,14.64c2.74-9.76,10.59-15.83,20.83-15.83,12.26,0,19.16,8,19.16,20v39H248v-42c0-8.45-3.22-14.76-12.38-14.76-8.69,0-16.9,8.45-17.14,20.35Z" transform="translate(0)" fill="#fff"/>
    <path d="M267,610.33h9.28V594.86l10.35-4.16v19.63h20.71l-.6,1.19H286.58v45.34c0,7.38,3.21,10.71,8.09,10.71,8.33,0,13.09-6.78,13.57-17.73l1.19.12c-.6,11.19-5.47,19.4-17.14,19.4-10,0-16.18-5.83-16.06-16.31V611.52H267Z" transform="translate(0)" fill="#fff"/>
    <path d="M354.05,626c0-9.64-5-15.59-15.59-15.59-10.35,0-17.73,5.83-17.73,14.16,0,4,1.31,6.07,4,8.21l-.72.84a10.47,10.47,0,0,1-4.52-9c0-8.92,7.74-15.47,21.18-15.47,16.07,0,23.69,7.74,23.69,20.11v38.92h-9.29l-.83-16.66c-2.14,8.45-9.52,17.85-22,17.85-9.87,0-17-5.6-17-14.52,0-10.59,11.18-14.52,22.49-16.42l16.3-2.62Zm-13.92,13.21c-10,1.55-14.64,5.71-14.64,14s4.64,13.09,11.19,13.09c9.28,0,16.3-9.16,17.37-19.16V637Z" transform="translate(0)" fill="#fff"/>
    <path d="M391.3,668.17H380.82V579H391.3Z" transform="translate(0)" fill="#fff"/>
    <path d="M438.18,584.86h11.07v39.75h51.41V584.86h10.95v83.31H500.66V625.92H449.25v42.25H438.18Z" transform="translate(0)" fill="#fff"/>
    <path d="M554,669.36c-13.81,0-28.33-11.43-28.33-29.75,0-18.57,13.45-30.47,27.73-30.47,16.42,0,25.82,12.38,25.82,27.37H537a29.79,29.79,0,0,0-.12,3.33c0,17.74,6.55,27.85,19.75,27.85,10.12,0,18.69-6.19,21.19-17.73l1.19.24C576.22,662.34,567.18,669.36,554,669.36Zm-17-34h31.53c0-14.75-3.57-25.11-15.11-25.11C544.8,610.21,537.9,617.35,537,635.32Z" transform="translate(0)" fill="#fff"/>
    <path d="M625.49,626c0-9.64-5-15.59-15.59-15.59-10.36,0-17.74,5.83-17.74,14.16,0,4,1.31,6.07,4.05,8.21l-.71.84a10.46,10.46,0,0,1-4.53-9c0-8.92,7.74-15.47,21.19-15.47,16.06,0,23.68,7.74,23.68,20.11v38.92h-9.28l-.84-16.66c-2.14,8.45-9.52,17.85-22,17.85-9.88,0-17-5.6-17-14.52,0-10.59,11.19-14.52,22.49-16.42l16.31-2.62Zm-13.93,13.21c-10,1.55-14.64,5.71-14.64,14s4.65,13.09,11.19,13.09c9.28,0,16.3-9.16,17.38-19.16V637Z" transform="translate(0)" fill="#fff"/>
    <path d="M662.73,668.17H652.26V579h10.47Z" transform="translate(0)" fill="#fff"/>
    <path d="M672,610.33h9.28V594.86l10.35-4.16v19.63h20.71l-.59,1.19H691.64v45.34c0,7.38,3.22,10.71,8.1,10.71,8.33,0,13.09-6.78,13.56-17.73l1.19.12c-.59,11.19-5.47,19.4-17.13,19.4-10,0-16.19-5.83-16.07-16.31V611.52H672Z" transform="translate(0)" fill="#fff"/>
    <path d="M735.44,579V625c2.73-9.76,10.59-15.83,20.82-15.83,12.26,0,19.16,8,19.16,20v39H765v-42c0-8.45-3.21-14.76-12.38-14.76-8.68,0-16.9,8.45-17.13,20.35v36.42H725V579Z" transform="translate(0)" fill="#fff"/>
    <path d="M93.57,811c-2.27-2.26-4.41-4.53-7.5-7.86a32.86,32.86,0,0,1-23.45,9.17C47,812.28,38,801.8,38,789.78c0-10.94,6.55-18.44,15.71-23.44V766C49.53,760.75,47,754.92,47,749.2c0-9.75,7-19.75,20.35-19.75,10,0,17.73,6.66,17.73,17,0,8.45-4.88,15.11-17.62,21.42v.35c6.79,7.86,14.4,16.67,19.52,22.38,3.69-5.6,6.19-13.33,7.74-23.45h9.52c-2.15,12.62-5.6,22.61-11.55,29.64,4.29,4.52,8.45,9,13.21,14.16ZM81,797.16c-4.76-5.23-13.68-15-22.61-25.23C54.06,774.67,48,779.79,48,788.24c0,9.16,6.78,16.18,16.42,16.18A22.4,22.4,0,0,0,81,797.16ZM56.56,748.25c0,5.71,2.61,10.12,6.06,14.4C70.72,758,76,753.73,76,746.94c0-4.88-2.73-10.35-9.28-10.35S56.56,742.06,56.56,748.25Z" transform="translate(0)" fill="#fff"/>
    <path d="M90.59,895.1,68.93,955h-.47L36,870.46H47.39l26,68.43,16.54-45.81-8.57-22.62h11L118,939.61l25-69.15h1.43L113.8,955h-.48Z" transform="translate(0)" fill="#fff"/>
    <path d="M170.68,955c-13.81,0-28.33-11.43-28.33-29.75,0-18.57,13.45-30.47,27.73-30.47,16.42,0,25.83,12.38,25.83,27.37H153.66a29.79,29.79,0,0,0-.12,3.33c0,17.74,6.55,27.85,19.75,27.85,10.12,0,18.69-6.19,21.19-17.73l1.19.24C192.93,947.94,183.89,955,170.68,955Zm-17-34H185.2c0-14.75-3.58-25.11-15.12-25.11C161.51,895.81,154.61,903,153.66,920.92Z" transform="translate(0)" fill="#fff"/>
    <path d="M218.63,953.77H208.16V864.63h10.47Z" transform="translate(0)" fill="#fff"/>
    <path d="M246.36,953.77H235.89V864.63h10.47Z" transform="translate(0)" fill="#fff"/>
    <path d="M273,953.77h-9.4V864.63h10.47v46.18A21.64,21.64,0,0,1,295,894.74c13.56,0,25.46,11.43,25.46,29.75S308.83,955,295,955a21.58,21.58,0,0,1-20.95-16Zm1.07-22.61c.24,12.61,8.21,21.54,18.21,21.54,10.95,0,17-12.14,17-28.21s-6.07-27.61-16.9-27.61c-9.52,0-18.09,8.57-18.33,21.42Z" transform="translate(0)" fill="#fff"/>
    <path d="M356.79,955c-13.81,0-28.33-11.43-28.33-29.75,0-18.57,13.45-30.47,27.73-30.47,16.42,0,25.83,12.38,25.83,27.37H339.77a29.79,29.79,0,0,0-.12,3.33c0,17.74,6.55,27.85,19.75,27.85,10.12,0,18.69-6.19,21.19-17.73l1.19.24C379,947.94,370,955,356.79,955Zm-17-34h31.54c0-14.75-3.58-25.11-15.12-25.11C347.62,895.81,340.72,903,339.77,920.92Z" transform="translate(0)" fill="#fff"/>
    <path d="M394.15,869.63H405v13.09H394.15Zm10.59,84.14H394.27V895.93h10.47Z" transform="translate(0)" fill="#fff"/>
    <path d="M432.47,953.77H422V895.93h10l.48,14.64c2.74-9.76,10.59-15.83,20.82-15.83,12.26,0,19.16,8,19.16,20v39H462v-42c0-8.45-3.21-14.76-12.38-14.76-8.68,0-16.89,8.45-17.13,20.35Z" transform="translate(0)" fill="#fff"/>
    <path d="M508.87,980.54c-16.55,0-28.68-5.23-28.68-15.94,0-7.86,8.09-12.74,15.94-12.86-5.83-1.07-10.11-5-10.11-10.71s4-9.4,9.4-11.66a18,18,0,0,1-9.28-15.59c0-10.47,9.64-19,23.32-19a26.72,26.72,0,0,1,14.88,4.17c3.21-5.12,7-9.17,12.73-9.17,5.12,0,8.33,3.22,8.33,8.09a10.28,10.28,0,0,1-2.38,6.55l-.95-.83a8.59,8.59,0,0,0,2.14-5.72c0-4.28-3-6.9-7.14-6.9-4.88,0-8.81,3.81-11.78,8.69a17.52,17.52,0,0,1,7.61,14.16c0,10.71-9.87,19.28-23.44,19.28a26.17,26.17,0,0,1-13-3.09c-4.17,1.66-7.38,4.16-7.38,7.61s3.45,5.12,8.93,5.12h24.75c11.42,0,19.16,4.64,19.16,15.23C542,972.21,525.88,980.54,508.87,980.54Zm-10.48-28.08c-7.26,0-17,3.57-17,12.14,0,10.11,11.78,14.75,27.49,14.75,14.87,0,28.8-6.42,28.8-17.37,0-6.07-4.17-9.52-13.1-9.52Zm11.07-56.65c-8.69,0-12.85,6.43-12.85,18,0,11.78,4.16,18.21,12.85,18.21s12.85-6.43,12.85-18.21C522.31,902.24,518.15,895.81,509.46,895.81Z" transform="translate(0)" fill="#fff"/>
  </g>
  <g>
    <path d="M81.09,56.9H91.88v54.52c0,17.83-12.31,28.73-29.43,28.73-15.48,0-25.57-9.61-25.57-23,0-7.39,4-13.37,8.21-15.83l.47.94a17.59,17.59,0,0,0-7.51,14.89c0,12.78,9.74,21.46,22.75,21.46,14.08,0,20.29-9.5,20.29-24.51Z" transform="translate(0)" fill="#fff"/>
    <path d="M110.64,56.9h10.9V96.06H172.2V56.9H183V139H172.2V97.35H121.54V139h-10.9Z" transform="translate(0)" fill="#fff"/>
  </g>
</svg>
