<svg data-name="Layer 1" xmlns="http://www.w3.org/2000/svg" width="1000" height="1000"><path fill="#a41d3a" d="M0 0h1000v1000H0z"/><g fill="#fff"><path d="M134.91 736.43c33.09 0 59.51 15.74 71 48l-2.66 1.07c-10.41-29.62-34.7-45.63-64.32-45.63-41.36 0-68.85 33.09-68.85 92.6s27.49 92.6 68.85 92.6c29.62 0 54.17-15.21 65.12-45.37l2.66 1.07c-12 32.29-38.69 47.77-71.78 47.77-51.51 0-92.34-39.5-92.34-95.54s40.81-96.57 92.32-96.57zM236.85 925.9V739.1h65.38c36.56 0 67 12.81 67 46.16 0 26.42-24.82 43-51.24 44.3v.54c31.23.8 59.25 14.41 59.25 46.43 0 34.16-29.62 49.37-68.59 49.37zm24.82-97.4h34.69c25.08 0 48.3-8.54 48.3-43.24 0-30.42-17.35-43.23-48-43.23h-35zm0 2.93V923h40.83c30.15 0 50.17-10.4 50.17-45.9 0-33.35-22.15-45.63-55.51-45.63zM456.47 742h-73.12v-2.9h170.8v2.9H481v183.9h-24.53z"/></g><g fill="#fff"><path d="M81.09 56.9h10.79v54.52c0 17.83-12.31 28.73-29.43 28.73-15.48 0-25.57-9.61-25.57-23 0-7.39 4-13.37 8.21-15.83l.47.94a17.59 17.59 0 00-7.51 14.89c0 12.78 9.74 21.46 22.75 21.46 14.08 0 20.29-9.5 20.29-24.51zM110.64 56.9h10.9v39.16h50.66V56.9H183V139h-10.8V97.35h-50.66V139h-10.9z"/></g></svg>