<?xml version="1.0" standalone="no"?>
<!DOCTYPE svg PUBLIC "-//W3C//DTD SVG 20010904//EN"
 "http://www.w3.org/TR/2001/REC-SVG-20010904/DTD/svg10.dtd">
<svg version="1.0" xmlns="http://www.w3.org/2000/svg"
 width="1000.000000pt" height="1000.000000pt" viewBox="0 0 1000.000000 1000.000000"
 preserveAspectRatio="xMidYMid meet">
<metadata>
Created by potrace 1.11, written by Peter Selinger 2001-2013
</metadata>
<g transform="translate(0.000000,1000.000000) scale(0.100000,-0.100000)"
fill="#000000" stroke="none">
<path d="M0 5000 l0 -5000 5000 0 5000 0 0 5000 0 5000 -5000 0 -5000 0 0
-5000z m3868 908 l-3 -1533 -22 -98 c-69 -301 -182 -516 -373 -707 -233 -234
-542 -371 -919 -410 -690 -69 -1251 228 -1444 765 -47 133 -61 226 -61 405 0
145 4 177 26 261 47 175 124 316 237 433 60 62 148 133 155 124 2 -1 8 -12 14
-23 9 -17 1 -27 -56 -75 -220 -183 -335 -465 -319 -779 14 -271 109 -498 285
-682 169 -177 356 -279 612 -335 120 -26 420 -27 540 -1 177 38 317 109 437
221 188 175 297 436 333 795 6 65 10 664 10 1637 l0 1534 275 0 275 0 -2
-1532z m1532 522 l0 -1010 1305 0 1305 0 0 1010 0 1010 275 0 275 0 0 -2115 0
-2115 -275 0 -275 0 0 1070 0 1070 -1305 0 -1305 0 0 -1070 0 -1070 -280 0
-280 0 0 2115 0 2115 280 0 280 0 0 -1010z"/>
</g>
</svg>
